# xmcd
#
# Track frame offsets:
#	150
#	9589
#	11576
#	12577
#	14471
#	15865
#	19063
#	20683
#	22270
#	24053
#	28982
#	29470
#	30165
#	30900
#	36874
#	37842
#	38814
#	40706
#	41608
#	42594
#	43296
#	46664
#	49968
#	51406
#	52369
#	53388
#	54379
#	55294
#	56303
#	57466
#	62889
#	65550
#	69002
#	70439
#	71344
#	72257
#	73681
#	74507
#	75202
#	75982
#	79961
#	82433
#	87656
#	91063
#	92620
#	95788
#	96884
#	97534
#	98067
#	102516
#	103379
#	104274
#	105204
#	106057
#	106736
#	108038
#	112526
#	116667
#	118000
#	118941
#	120440
#	121037
#	121601
#	122041
#	122603
#	126214
#	129931
#	133476
#	134298
#	134979
#	135864
#	136775
#	137533
#	138413
#	139654
#	140629
#	145449
#	148212
#	148641
#	150155
#	150814
#	151505
#	152112
#	155567
#	159927
#	162810
#	167674
#	170819
#	174694
#	181392
#	185443
#	188497
#
# Disc length: 2602 seconds
#
# Revision: 1
# Processed by: cddbd v1.5.2PL0 Copyright (c) Steve Scherf et al.
# Submitted via: audiograbber 1.83.01
#
DISCID=e20a285c
DTITLE=Don Baker - Beginning Blues Harp
DYEAR=1995
DGENRE=Studies
TTITLE0=The C Scale
TTITLE1=C Scale excersie # 1
TTITLE2=C Scale excersie # 2
TTITLE3=C Scale excersie # 3
TTITLE4=C Scale excersie # 4
TTITLE5=Michael Row SOLO
TTITLE6=When the Saints SOLO
TTITLE7=Oh! Susanna SOLO
TTITLE8=Frankie and Johnny SOLO
TTITLE9=Cross Playing Riff # 1
TTITLE10=Cross Playing Riff # 2
TTITLE11=Cross Playing Riff # 3
TTITLE12=Cross Playing Riff # 4
TTITLE13=A to Ab bend # 1
TTITLE14=A to Ab bend # 2
TTITLE15=A to Ab bend # 3
TTITLE16=A to Ab Blues Riff # 1
TTITLE17=A to Ab Blues Riff # 2
TTITLE18=A to Ab Blues Riff # 3
TTITLE19=A to Ab Blues Riff # 4
TTITLE20=Sad Man Blues SOLO
TTITLE21=Little Blues SOLO
TTITLE22=F to E bend # 1
TTITLE23=F to E bend # 2
TTITLE24=F to E bend # 3
TTITLE25=Blues Riffs # 1
TTITLE26=Blues Riffs # 2
TTITLE27=Blues Riffs # 3
TTITLE28=Blues Riffs # 4
TTITLE29=Rainy Days SOLO
TTITLE30=Money in my Pocket SOLO
TTITLE31=It Don't Come Easy SOLO
TTITLE32=D to Db bend # 1
TTITLE33=D to Db bend # 2
TTITLE34=D to Db bend # 3
TTITLE35=Blues Riffs # 1
TTITLE36=Blues Riff # 2
TTITLE37=Blues Riff # 3
TTITLE38=Blues Riff # 4
TTITLE39=No Way Out SOLO
TTITLE40=Kansas City Blues SOLO
TTITLE41=Empty Streets SOLO
TTITLE42=Down in New Orleans SOLO
TTITLE43='Wah Wah'
TTITLE44='Wah Wah' Blues Riffs # 1
TTITLE45='Wah Wah' Blues Riffs # 2
TTITLE46='Wah Wah' Blues Riffs # 3
TTITLE47='Wah Wah' Blues Riffs # 4
TTITLE48=B to A bend # 1
TTITLE49=B to A bend # 2
TTITLE50=B to A bend # 3
TTITLE51=Full Tone Bend Riffs # 1
TTITLE52=Full Tone Bend Riffs # 2
TTITLE53=Full Tone Bend Riffs # 3
TTITLE54=Full Tone Bend Riffs # 4
TTITLE55=The One hole harp SOLO
TTITLE56=Southside Blues SOLO
TTITLE57=G to F bend # 1
TTITLE58=G to F bend # 2
TTITLE59=Blues Riffs # 1
TTITLE60=Blues Riffs # 2
TTITLE61=Blues Riffs # 3
TTITLE62=Blues Riffs # 4
TTITLE63=Blues Riffs # 5
TTITLE64=Wah Bash Blues SOLO
TTITLE65=Chicago Blues Stomp SOLO
TTITLE66=Riffs Using Tone Control # 1
TTITLE67=Riffs Using Tone Control # 2
TTITLE68=Riffs Using Tone Control # 3
TTITLE69=Riffs Using Tone Control # 4
TTITLE70=Riffs Using Tone Control # 5
TTITLE71=Riffs Using Tone Control # 6
TTITLE72=Riffs Using Tone Control # 7
TTITLE73=Riffs Using Tone Control # 8
TTITLE74=Riffs Using Tone Control # 9
TTITLE75=Detroit Bound SOLO
TTITLE76=Triplet Tonguing # 1
TTITLE77=Triplet Tonguing # 2
TTITLE78=Triplet Riffs # 1
TTITLE79=Triplet Riffs # 2
TTITLE80=Triplet Riffs # 3
TTITLE81=Triplet Riffs # 4
TTITLE82=Blues for Elmer SOLO
TTITLE83=Hear Me Calling SOLO
TTITLE84=Good Time Blues SOLO
TTITLE85=Early Morning Blues SOLO
TTITLE86=Pink Blues SOLO
TTITLE87=Bessie's Blues SOLO
TTITLE88=Rockin' Blues SOLO
TTITLE89=Making Tracks SOLO
TTITLE90=I Can't Keep From Crying SOLO
TTITLE91=Blues For Jo SOLO
EXTD=
EXTT0=
EXTT1=
EXTT2=
EXTT3=
EXTT4=
EXTT5=
EXTT6=
EXTT7=
EXTT8=
EXTT9=
EXTT10=
EXTT11=
EXTT12=
EXTT13=
EXTT14=
EXTT15=
EXTT16=
EXTT17=
EXTT18=
EXTT19=
EXTT20=
EXTT21=
EXTT22=
EXTT23=
EXTT24=
EXTT25=
EXTT26=
EXTT27=
EXTT28=
EXTT29=
EXTT30=
EXTT31=
EXTT32=
EXTT33=
EXTT34=
EXTT35=
EXTT36=
EXTT37=
EXTT38=
EXTT39=
EXTT40=
EXTT41=
EXTT42=
EXTT43=
EXTT44=
EXTT45=
EXTT46=
EXTT47=
EXTT48=
EXTT49=
EXTT50=
EXTT51=
EXTT52=
EXTT53=
EXTT54=
EXTT55=
EXTT56=
EXTT57=
EXTT58=
EXTT59=
EXTT60=
EXTT61=
EXTT62=
EXTT63=
EXTT64=
EXTT65=
EXTT66=
EXTT67=
EXTT68=
EXTT69=
EXTT70=
EXTT71=
EXTT72=
EXTT73=
EXTT74=
EXTT75=
EXTT76=
EXTT77=
EXTT78=
EXTT79=
EXTT80=
EXTT81=
EXTT82=
EXTT83=
EXTT84=
EXTT85=
EXTT86=
EXTT87=
EXTT88=
EXTT89=
EXTT90=
EXTT91=
PLAYORDER=
